<svg width="285" height="400" viewBox="0 0 285 400" fill="none" xmlns="http://www.w3.org/2000/svg">
<g id="Group 2">
<g id="iPhone-X-Mockup">
<g id="phone">
<g id="body" filter="url(#filter0_d_0_893)">
<path fill-rule="evenodd" clip-rule="evenodd" d="M71.3031 55.2734H163.793C172.663 55.2734 179.854 62.1064 179.854 70.5353V279.465C179.854 287.894 172.663 294.727 163.793 294.727H71.3031C62.4328 294.727 55.2419 287.894 55.2419 279.465V70.5353C55.2419 62.1064 62.4328 55.2734 71.3031 55.2734Z" fill="#213648"/>
</g>
<g id="frame">
<path id="reflect-frame-top" opacity="0.595562" fill-rule="evenodd" clip-rule="evenodd" d="M164.151 55H70.8903C66.5363 55.2635 62.5207 57.2353 58.8436 60.9155C61.2084 58.8668 65.4262 56.1254 71.0026 56.1254C71.0026 56.1254 160.321 56.1254 164.038 56.1254C169.615 56.1254 173.833 58.8668 176.197 60.9155C172.52 57.2353 168.505 55.2635 164.151 55Z" fill="url(#paint0_linear_0_893)" fill-opacity="0.65"/>
<path id="reflect-frame-right" opacity="0.75" fill-rule="evenodd" clip-rule="evenodd" d="M177.331 277.082V71.7914C177.331 66.2832 175.291 64.247 174.074 62.9396C172.857 61.6321 172.805 60.9652 174.554 61.9524C176.302 62.9396 179.799 65.8148 179.799 71.7914V277.082C179.799 283.059 176.302 285.934 174.554 286.921C172.805 287.908 172.857 287.241 174.074 285.934C175.291 284.626 177.331 282.59 177.331 277.082Z" fill="url(#paint1_linear_0_893)"/>
<path id="reflect-frame-left" opacity="0.75" fill-rule="evenodd" clip-rule="evenodd" d="M57.7105 277.082V71.7914C57.7105 66.2832 59.7503 64.247 60.9671 62.9396C62.1839 61.6321 62.2357 60.9652 60.4873 61.9524C58.739 62.9396 55.2419 65.8148 55.2419 71.7914V277.082C55.2419 283.059 58.739 285.934 60.4873 286.921C62.2357 287.908 62.1839 287.241 60.9671 285.934C59.7503 284.626 57.7105 282.59 57.7105 277.082Z" fill="url(#paint2_linear_0_893)"/>
</g>
<g id="controls">
<path id="vol+" fill-rule="evenodd" clip-rule="evenodd" d="M54 104.948C54 104.285 54.5375 103.748 55.2006 103.748C55.8636 103.748 56.4011 104.285 56.4011 104.948V133.435C56.4011 134.098 55.8636 134.636 55.2006 134.636C54.5375 134.636 54 134.098 54 133.435V104.948Z" fill="#2E423C"/>
<path id="power" fill-rule="evenodd" clip-rule="evenodd" d="M178.557 130.141C178.557 129.478 179.095 128.941 179.758 128.941C180.421 128.941 180.958 129.478 180.958 130.141V150.276C180.958 150.939 180.421 151.477 179.758 151.477C179.095 151.477 178.557 150.939 178.557 150.276V130.141Z" fill="#2E423C"/>
</g>
</g>
<g id="Screen">
<path id="Screen Mask" fill-rule="evenodd" clip-rule="evenodd" d="M106.561 60.9731L70.5746 60.9731C65.2039 60.9731 61.2906 64.6035 61.2906 69.345V272.092C61.2906 278.274 67.3374 283.752 74.1747 283.752H160.909C167.495 283.752 173.793 278.232 173.793 272.092V69.8931C173.793 64.21 169.542 61.0069 164.509 60.9731L127.952 60.9731C127.814 60.9957 125.302 62.0204 124.241 64.6035C123.18 67.1867 121.044 69.2459 118.706 69.2459H115.99C114.879 69.2459 111.953 68.1756 110.471 64.6035C108.99 61.0314 106.7 60.9957 106.561 60.9731Z" fill="white"/>
<mask id="mask0_0_893" style="mask-type:alpha" maskUnits="userSpaceOnUse" x="61" y="60" width="113" height="224">
<path id="Screen Mask_2" fill-rule="evenodd" clip-rule="evenodd" d="M106.561 60.9731L70.5746 60.9731C65.2039 60.9731 61.2906 64.6035 61.2906 69.345V272.092C61.2906 278.274 67.3374 283.752 74.1747 283.752H160.909C167.495 283.752 173.793 278.232 173.793 272.092V69.8931C173.793 64.21 169.542 61.0069 164.509 60.9731L127.952 60.9731C127.814 60.9957 125.302 62.0204 124.241 64.6035C123.18 67.1867 121.044 69.2459 118.706 69.2459H115.99C114.879 69.2459 111.953 68.1756 110.471 64.6035C108.99 61.0314 106.7 60.9957 106.561 60.9731Z" fill="white"/>
</mask>
<g mask="url(#mask0_0_893)">
<rect id="Rectangle" x="61" y="61" width="113" height="223" fill="url(#paint3_linear_0_893)"/>
<path id="12:49" fill-rule="evenodd" clip-rule="evenodd" d="M112.762 120.311V122.2H104.543V120.526C104.543 119.962 104.649 119.475 104.861 119.063C105.072 118.65 105.352 118.292 105.7 117.987C106.048 117.683 106.43 117.415 106.846 117.185C107.261 116.954 107.677 116.737 108.095 116.532C108.513 116.327 108.896 116.121 109.244 115.914C109.593 115.706 109.873 115.475 110.084 115.219C110.296 114.963 110.401 114.661 110.401 114.312C110.401 113.867 110.245 113.503 109.933 113.222C109.621 112.94 109.194 112.799 108.652 112.799C108.09 112.799 107.613 112.961 107.221 113.283C106.829 113.606 106.586 114.092 106.493 114.743H104.334C104.345 114.036 104.511 113.395 104.834 112.819C105.156 112.243 105.64 111.786 106.284 111.448C106.929 111.11 107.739 110.941 108.714 110.941C109.55 110.941 110.271 111.082 110.877 111.363C111.483 111.645 111.952 112.037 112.282 112.538C112.612 113.04 112.777 113.626 112.777 114.297C112.777 114.855 112.674 115.336 112.467 115.741C112.261 116.145 111.988 116.491 111.647 116.778C111.307 117.064 110.933 117.315 110.525 117.53C110.118 117.745 109.711 117.945 109.306 118.129C108.901 118.314 108.529 118.502 108.188 118.694C107.848 118.886 107.574 119.102 107.368 119.343C107.161 119.583 107.058 119.873 107.058 120.211V120.311H112.762ZM101.997 111.095V122.2H99.7068V113.882H97.7103V112.615C98.35 112.615 98.8672 112.555 99.2619 112.435C99.6565 112.314 99.9519 112.14 100.148 111.912C100.344 111.685 100.46 111.412 100.496 111.095H101.997ZM116.739 116.855V114.451H114.263V116.855H116.739ZM116.739 119.758V122.154H114.263V119.758H116.739ZM125.654 122.2V119.742H127.379V117.861H125.654V111.095H123.433L118.333 117.899V119.742H123.487L123.479 122.2H125.654ZM120.423 117.861H123.487V113.79L120.423 117.861ZM132.611 122.369C133.591 122.369 134.434 122.15 135.141 121.712C135.848 121.274 136.391 120.614 136.77 119.731C137.149 118.847 137.339 117.743 137.339 116.417C137.339 115.306 137.154 114.339 136.785 113.518C136.417 112.696 135.888 112.061 135.199 111.613C134.51 111.165 133.691 110.941 132.742 110.941C131.896 110.941 131.158 111.102 130.529 111.425C129.9 111.747 129.409 112.193 129.059 112.761C128.708 113.329 128.532 113.977 128.532 114.704C128.532 115.426 128.699 116.049 129.032 116.574C129.364 117.099 129.823 117.503 130.409 117.788C130.994 118.072 131.666 118.214 132.425 118.214C132.843 118.214 133.222 118.159 133.562 118.049C133.903 117.939 134.201 117.783 134.456 117.58C134.712 117.378 134.911 117.141 135.056 116.87C135.118 117.756 135.047 118.472 134.843 119.02C134.639 119.568 134.335 119.967 133.93 120.218C133.525 120.469 133.054 120.595 132.518 120.595C132.033 120.595 131.63 120.46 131.31 120.191C130.991 119.923 130.784 119.573 130.691 119.143H128.54C128.587 119.793 128.801 120.36 129.182 120.844C129.564 121.328 130.057 121.703 130.66 121.969C131.264 122.236 131.914 122.369 132.611 122.369ZM131.473 115.952C131.813 116.272 132.26 116.432 132.812 116.432C133.126 116.432 133.432 116.362 133.729 116.221C134.025 116.08 134.269 115.902 134.46 115.687C134.651 115.472 134.746 115.249 134.746 115.019C134.751 114.522 134.673 114.096 134.51 113.74C134.348 113.384 134.121 113.112 133.829 112.922C133.538 112.733 133.199 112.638 132.812 112.638C132.456 112.638 132.138 112.72 131.86 112.884C131.581 113.048 131.362 113.278 131.202 113.575C131.042 113.872 130.962 114.215 130.962 114.604C130.962 115.183 131.132 115.632 131.473 115.952Z" fill="white"/>
</g>
</g>
</g>
</g>
<defs>
<filter id="filter0_d_0_893" x="0.241943" y="0.273438" width="284.612" height="399.453" filterUnits="userSpaceOnUse" color-interpolation-filters="sRGB">
<feFlood flood-opacity="0" result="BackgroundImageFix"/>
<feColorMatrix in="SourceAlpha" type="matrix" values="0 0 0 0 0 0 0 0 0 0 0 0 0 0 0 0 0 0 127 0" result="hardAlpha"/>
<feOffset dx="25" dy="25"/>
<feGaussianBlur stdDeviation="40"/>
<feColorMatrix type="matrix" values="0 0 0 0 0.212302 0 0 0 0 0.32521 0 0 0 0 0.419299 0 0 0 0.300727 0"/>
<feBlend mode="normal" in2="BackgroundImageFix" result="effect1_dropShadow_0_893"/>
<feBlend mode="normal" in="SourceGraphic" in2="effect1_dropShadow_0_893" result="shape"/>
</filter>
<linearGradient id="paint0_linear_0_893" x1="58.8436" y1="55" x2="58.8436" y2="60.9155" gradientUnits="userSpaceOnUse">
<stop stop-color="#454545"/>
<stop offset="0.226279" stop-color="#999999"/>
<stop offset="1" stop-color="white"/>
</linearGradient>
<linearGradient id="paint1_linear_0_893" x1="179.799" y1="96.1589" x2="175.223" y2="96.1589" gradientUnits="userSpaceOnUse">
<stop stop-color="white" stop-opacity="0.01"/>
<stop offset="0.222178" stop-color="#BABABA"/>
<stop offset="0.54678" stop-color="white" stop-opacity="0.01"/>
<stop offset="1" stop-color="white" stop-opacity="0.01"/>
</linearGradient>
<linearGradient id="paint2_linear_0_893" x1="55.2419" y1="96.0338" x2="59.825" y2="96.0338" gradientUnits="userSpaceOnUse">
<stop stop-color="white" stop-opacity="0.01"/>
<stop offset="0.222178" stop-color="#BABABA"/>
<stop offset="0.54678" stop-color="white" stop-opacity="0.01"/>
<stop offset="1" stop-color="white" stop-opacity="0.01"/>
</linearGradient>
<linearGradient id="paint3_linear_0_893" x1="61.4399" y1="61" x2="61.4399" y2="282.264" gradientUnits="userSpaceOnUse">
<stop stop-color="#9CB6CD"/>
<stop offset="0.420564" stop-color="#9AB3CA"/>
<stop offset="0.716592" stop-color="#557496"/>
<stop offset="1" stop-color="#475178"/>
</linearGradient>
</defs>
</svg>
