<svg width="326" height="480" viewBox="0 0 326 480" fill="none" xmlns="http://www.w3.org/2000/svg">
<g id="Group 38">
<g id="Group 2 Copy 3">
<g id="iPhone-X-Mockup">
<g id="phone">
<g id="body" filter="url(#filter0_d_0_3003)">
<path fill-rule="evenodd" clip-rule="evenodd" d="M76.8167 55.3643H199.206C210.944 55.3643 220.459 64.4749 220.459 75.7134V354.286C220.459 365.525 210.944 374.635 199.206 374.635H76.8167C65.0789 374.635 55.5635 365.525 55.5635 354.286V75.7134C55.5635 64.4749 65.0789 55.3643 76.8167 55.3643Z" fill="#213648"/>
</g>
<g id="frame">
<path id="reflect-frame-top" opacity="0.595562" fill-rule="evenodd" clip-rule="evenodd" d="M199.679 55H76.2705C70.5089 55.3513 65.1952 57.9804 60.3295 62.8873C63.4587 60.1558 69.04 56.5005 76.4191 56.5005C76.4191 56.5005 194.611 56.5005 199.531 56.5005C206.91 56.5005 212.491 60.1558 215.62 62.8873C210.755 57.9804 205.441 55.3513 199.679 55Z" fill="url(#paint0_linear_0_3003)" fill-opacity="0.65"/>
<path id="reflect-frame-right" opacity="0.75" fill-rule="evenodd" clip-rule="evenodd" d="M217.12 351.109V77.3885C217.12 70.0443 214.42 67.3294 212.81 65.5861C211.2 63.8428 211.132 62.9536 213.445 64.2698C215.759 65.5861 220.386 69.4197 220.386 77.3885V351.109C220.386 359.078 215.759 362.912 213.445 364.228C211.132 365.544 211.2 364.655 212.81 362.912C214.42 361.169 217.12 358.454 217.12 351.109Z" fill="url(#paint1_linear_0_3003)"/>
<path id="reflect-frame-left" opacity="0.75" fill-rule="evenodd" clip-rule="evenodd" d="M58.83 351.109V77.3885C58.83 70.0443 61.5291 67.3294 63.1393 65.5861C64.7495 63.8428 64.8181 62.9536 62.5045 64.2698C60.1909 65.5861 55.5634 69.4197 55.5634 77.3885V351.109C55.5634 359.078 60.1909 362.912 62.5045 364.228C64.8181 365.544 64.7495 364.655 63.1393 362.912C61.5291 361.169 58.83 358.454 58.83 351.109Z" fill="url(#paint2_linear_0_3003)"/>
</g>
<g id="controls">
<path id="vol+" fill-rule="evenodd" clip-rule="evenodd" d="M53.92 121.585C53.92 120.707 54.6313 119.996 55.5087 119.996C56.3861 119.996 57.0973 120.707 57.0973 121.585V159.592C57.0973 160.469 56.3861 161.181 55.5087 161.181C54.6313 161.181 53.92 160.469 53.92 159.592V121.585Z" fill="#2E423C"/>
<path id="power" fill-rule="evenodd" clip-rule="evenodd" d="M218.743 155.176C218.743 154.299 219.454 153.587 220.331 153.587C221.209 153.587 221.92 154.299 221.92 155.176V182.047C221.92 182.924 221.209 183.635 220.331 183.635C219.454 183.635 218.743 182.924 218.743 182.047V155.176Z" fill="#2E423C"/>
</g>
</g>
<g id="Screen">
<path id="Screen Mask" fill-rule="evenodd" clip-rule="evenodd" d="M123.473 62.9644L75.8528 62.9644C68.7459 62.9644 63.5676 67.8049 63.5676 74.1269V344.456C63.5676 352.699 71.5691 360.003 80.6167 360.003H195.39C204.105 360.003 212.439 352.643 212.439 344.456V74.8576C212.439 67.2802 206.814 63.0094 200.154 62.9644L151.779 62.9644C151.595 62.9944 148.272 64.3607 146.868 67.8049C145.463 71.2491 142.637 73.9947 139.543 73.9947H135.95C134.479 73.9947 130.607 72.5677 128.647 67.8049C126.686 63.0421 123.656 62.9944 123.473 62.9644Z" fill="#36536B"/>
<mask id="mask0_0_3003" style="mask-type:alpha" maskUnits="userSpaceOnUse" x="63" y="62" width="150" height="299">
<path id="Screen Mask_2" fill-rule="evenodd" clip-rule="evenodd" d="M123.473 62.9644L75.8528 62.9644C68.7459 62.9644 63.5676 67.8049 63.5676 74.1269V344.456C63.5676 352.699 71.5691 360.003 80.6167 360.003H195.39C204.105 360.003 212.439 352.643 212.439 344.456V74.8576C212.439 67.2802 206.814 63.0094 200.154 62.9644L151.779 62.9644C151.595 62.9944 148.272 64.3607 146.868 67.8049C145.463 71.2491 142.637 73.9947 139.543 73.9947H135.95C134.479 73.9947 130.607 72.5677 128.647 67.8049C126.686 63.0421 123.656 62.9944 123.473 62.9644Z" fill="white"/>
</mask>
<g mask="url(#mask0_0_3003)">
</g>
</g>
</g>
</g>
<g id="Group 39">
<g id="Group 33">
<g id="Group 34">
<g id="Rectangle" filter="url(#filter1_d_0_3003)">
<rect x="81.4401" y="145.88" width="112.64" height="122.24" rx="5" fill="#FBFCFE"/>
</g>
<g id="Group 32">
<path id="Paymentof$9204iscompletedandprocessedsuccessfully" fill-rule="evenodd" clip-rule="evenodd" d="M150.648 221.452L150.648 222.194H149.599L149.599 221.453L149.581 221.451C149.11 221.393 148.711 221.259 148.385 221.048C147.935 220.759 147.677 220.311 147.611 219.707L148.876 219.682C148.942 219.956 149.086 220.165 149.306 220.308C149.527 220.451 149.803 220.522 150.136 220.522C150.336 220.522 150.513 220.49 150.666 220.424C150.82 220.359 150.942 220.27 151.03 220.158C151.119 220.046 151.164 219.918 151.164 219.773C151.164 219.551 151.093 219.386 150.951 219.276C150.81 219.167 150.592 219.079 150.298 219.012L149.312 218.8C148.855 218.708 148.488 218.526 148.212 218.253C147.936 217.98 147.795 217.613 147.79 217.153C147.787 216.775 147.889 216.449 148.096 216.173C148.302 215.897 148.584 215.684 148.94 215.534L149.095 215.475C149.254 215.42 149.42 215.378 149.594 215.351L149.62 215.348L149.62 214.523H150.673L150.673 215.353L150.776 215.371C150.973 215.411 151.154 215.472 151.32 215.553C151.651 215.715 151.906 215.933 152.085 216.206C152.264 216.479 152.351 216.781 152.345 217.111L151.118 217.132C151.079 216.866 150.99 216.656 150.852 216.504C150.713 216.351 150.483 216.275 150.161 216.275C149.995 216.275 149.846 216.293 149.716 216.329C149.586 216.365 149.473 216.416 149.379 216.481C149.285 216.546 149.213 216.623 149.165 216.712C149.116 216.8 149.092 216.9 149.092 217.011C149.092 217.186 149.151 217.324 149.269 217.425C149.387 217.526 149.609 217.62 149.936 217.706L150.906 217.943C151.452 218.073 151.847 218.297 152.089 218.613C152.332 218.929 152.453 219.313 152.453 219.765C152.453 220.112 152.358 220.414 152.168 220.672C151.978 220.93 151.71 221.13 151.363 221.271L151.211 221.327C151.055 221.379 150.888 221.418 150.709 221.444L150.648 221.452ZM103.73 219.195V221.4H102.823V215.385H104.907C105.337 215.385 105.722 215.458 106.062 215.605C106.402 215.752 106.669 215.968 106.865 216.254C107.06 216.54 107.158 216.89 107.158 217.306C107.158 217.706 107.069 218.046 106.89 218.328C106.711 218.609 106.461 218.824 106.141 218.973C105.821 219.121 105.45 219.195 105.028 219.195H103.73ZM103.726 218.467H105.003C105.386 218.467 105.698 218.357 105.939 218.136C106.18 217.916 106.301 217.623 106.301 217.257C106.301 216.885 106.176 216.6 105.927 216.402C105.677 216.203 105.358 216.104 104.97 216.104H103.726V218.467ZM109.052 221.483C109.36 221.483 109.637 221.42 109.882 221.294C110.127 221.168 110.331 220.94 110.491 220.61L110.562 221.4H111.315V218.392C111.315 218.098 111.253 217.849 111.13 217.643C111.007 217.438 110.819 217.282 110.566 217.175C110.314 217.069 109.992 217.015 109.601 217.015C109.249 217.015 108.942 217.065 108.682 217.165C108.421 217.265 108.217 217.413 108.068 217.608C107.92 217.804 107.837 218.044 107.821 218.33H108.594C108.65 218.089 108.767 217.915 108.946 217.81C109.125 217.704 109.329 217.652 109.56 217.652C109.865 217.649 110.091 217.718 110.238 217.86C110.385 218.001 110.458 218.195 110.458 218.442V218.754L109.751 218.775C109.01 218.789 108.471 218.914 108.133 219.149C107.794 219.385 107.625 219.741 107.625 220.218C107.625 220.485 107.686 220.712 107.808 220.901C107.93 221.089 108.099 221.234 108.314 221.333C108.529 221.433 108.775 221.483 109.052 221.483ZM108.723 220.67C108.884 220.799 109.087 220.863 109.331 220.863C109.467 220.863 109.601 220.839 109.734 220.79C109.867 220.742 109.988 220.675 110.096 220.591C110.204 220.506 110.291 220.411 110.356 220.306C110.421 220.2 110.455 220.092 110.458 219.981V219.27L109.876 219.282C109.579 219.285 109.327 219.316 109.121 219.374C108.914 219.432 108.756 219.522 108.646 219.644C108.537 219.766 108.482 219.929 108.482 220.131C108.482 220.361 108.563 220.541 108.723 220.67ZM112.849 222.773C113.055 222.773 113.244 222.741 113.419 222.677C113.594 222.613 113.754 222.5 113.9 222.336C114.045 222.172 114.179 221.941 114.301 221.641L116.094 217.098H115.22L114.022 220.277L112.816 217.098H111.926L113.602 221.275L113.469 221.637C113.452 221.684 113.428 221.735 113.394 221.791C113.361 221.846 113.313 221.898 113.251 221.947C113.188 221.995 113.104 222.034 112.997 222.061C112.89 222.089 112.754 222.099 112.587 222.09L112.15 222.082V222.656L112.302 222.714C112.403 222.753 112.586 222.773 112.849 222.773ZM117.69 218.559V221.4H116.8V217.098H117.665V217.718C117.787 217.53 117.954 217.365 118.164 217.225C118.375 217.085 118.647 217.015 118.98 217.015C119.135 217.015 119.292 217.042 119.452 217.094C119.611 217.147 119.758 217.225 119.893 217.329C120.027 217.433 120.134 217.562 120.211 217.714C120.347 217.509 120.529 217.341 120.756 217.211C120.984 217.08 121.239 217.015 121.522 217.015C121.674 217.015 121.832 217.04 121.996 217.088C122.159 217.137 122.311 217.218 122.451 217.334C122.591 217.449 122.705 217.607 122.792 217.81C122.88 218.012 122.923 218.269 122.923 218.579V221.4H122.029V218.675C122.029 218.439 121.99 218.255 121.911 218.122C121.831 217.989 121.729 217.895 121.603 217.841C121.476 217.787 121.343 217.76 121.201 217.76C121.074 217.76 120.941 217.785 120.802 217.835C120.663 217.885 120.545 217.968 120.448 218.084C120.351 218.201 120.303 218.359 120.303 218.559V221.4H119.412V218.484C119.412 218.326 119.37 218.193 119.286 218.084C119.201 217.976 119.096 217.895 118.969 217.841C118.843 217.787 118.718 217.76 118.593 217.76C118.454 217.76 118.316 217.788 118.177 217.843C118.038 217.899 117.922 217.985 117.83 218.103C117.737 218.221 117.69 218.373 117.69 218.559ZM125.843 221.483C126.129 221.483 126.402 221.431 126.663 221.327C126.924 221.223 127.146 221.069 127.331 220.863C127.515 220.658 127.632 220.408 127.682 220.114H126.859C126.8 220.345 126.678 220.518 126.49 220.634C126.303 220.751 126.082 220.809 125.827 220.809C125.572 220.809 125.358 220.75 125.186 220.632C125.014 220.515 124.886 220.354 124.801 220.15C124.717 219.946 124.675 219.715 124.675 219.457H127.703V219.162C127.703 218.726 127.63 218.349 127.483 218.028C127.336 217.708 127.12 217.459 126.836 217.282C126.551 217.104 126.201 217.015 125.785 217.015C125.364 217.015 125.003 217.112 124.704 217.306C124.404 217.501 124.175 217.769 124.017 218.111C123.859 218.454 123.78 218.848 123.78 219.295C123.78 219.747 123.867 220.137 124.04 220.464C124.213 220.791 124.455 221.043 124.766 221.219C125.077 221.395 125.436 221.483 125.843 221.483ZM124.675 218.879H126.854C126.854 218.654 126.816 218.45 126.738 218.265C126.66 218.081 126.542 217.935 126.382 217.829C126.223 217.722 126.022 217.668 125.781 217.668C125.534 217.668 125.329 217.728 125.165 217.847C125.002 217.967 124.879 218.119 124.797 218.305C124.715 218.491 124.675 218.682 124.675 218.879ZM129.523 221.4V218.559C129.523 218.381 129.572 218.233 129.669 218.116C129.766 217.998 129.893 217.91 130.051 217.851C130.209 217.793 130.376 217.764 130.55 217.764C130.811 217.764 131.024 217.839 131.189 217.989C131.354 218.138 131.437 218.367 131.437 218.675V221.4H132.327V218.579C132.327 218.222 132.257 217.93 132.119 217.704C131.98 217.478 131.796 217.311 131.568 217.205C131.339 217.098 131.09 217.044 130.821 217.044C130.593 217.044 130.393 217.076 130.22 217.14C130.046 217.204 129.901 217.287 129.783 217.39C129.665 217.492 129.572 217.602 129.502 217.718V217.098H128.633V221.4H129.523ZM135.288 221.404C135.178 221.421 135.038 221.429 134.866 221.429C134.547 221.429 134.299 221.386 134.123 221.3C133.947 221.214 133.825 221.09 133.757 220.928C133.689 220.766 133.655 220.569 133.655 220.339V217.739H132.956V217.098H133.68L133.901 215.834H134.545V217.094H135.51V217.739H134.545L134.55 220.306C134.55 220.447 134.564 220.551 134.593 220.616C134.622 220.681 134.672 220.723 134.743 220.741C134.814 220.759 134.91 220.768 135.032 220.768H135.535V221.346C135.48 221.368 135.397 221.387 135.288 221.404ZM139.962 221.483C140.392 221.483 140.754 221.39 141.05 221.202C141.345 221.015 141.57 220.755 141.724 220.422C141.878 220.09 141.954 219.705 141.954 219.27C141.954 218.793 141.873 218.386 141.709 218.049C141.545 217.712 141.315 217.456 141.019 217.279C140.722 217.103 140.371 217.015 139.966 217.015C139.542 217.015 139.18 217.109 138.88 217.296C138.581 217.483 138.353 217.746 138.196 218.084C138.039 218.423 137.961 218.818 137.961 219.27C137.961 219.739 138.043 220.138 138.208 220.468C138.373 220.798 138.606 221.05 138.907 221.223C139.208 221.396 139.56 221.483 139.962 221.483ZM139.313 220.585C139.479 220.726 139.697 220.797 139.966 220.797C140.21 220.797 140.415 220.732 140.58 220.603C140.745 220.474 140.869 220.293 140.952 220.058C141.035 219.824 141.077 219.553 141.077 219.245C141.077 218.959 141.04 218.699 140.966 218.465C140.893 218.231 140.774 218.044 140.611 217.906C140.447 217.767 140.232 217.698 139.966 217.698C139.716 217.698 139.508 217.761 139.342 217.887C139.176 218.013 139.05 218.192 138.966 218.423C138.881 218.655 138.839 218.929 138.839 219.245C138.839 219.525 138.876 219.783 138.951 220.019C139.026 220.255 139.146 220.443 139.313 220.585ZM144.164 221.4V217.739H145.171V217.098H144.147V216.549C144.147 216.364 144.178 216.226 144.241 216.135C144.303 216.045 144.42 216 144.592 216H145.212L145.208 215.385H144.351C143.996 215.385 143.727 215.475 143.544 215.657C143.361 215.839 143.27 216.101 143.27 216.445V217.098H142.392V217.739H143.27V221.4H144.164ZM155.372 221.491C155.899 221.491 156.352 221.373 156.732 221.136C157.112 220.899 157.404 220.541 157.608 220.062C157.812 219.584 157.914 218.986 157.914 218.267C157.914 217.666 157.815 217.142 157.616 216.697C157.418 216.252 157.134 215.908 156.763 215.665C156.393 215.423 155.953 215.301 155.443 215.301C154.988 215.301 154.591 215.389 154.253 215.563C153.915 215.738 153.651 215.979 153.462 216.287C153.274 216.595 153.18 216.946 153.18 217.34C153.18 217.731 153.269 218.068 153.448 218.353C153.627 218.637 153.874 218.856 154.188 219.01C154.503 219.164 154.864 219.241 155.272 219.241C155.497 219.241 155.701 219.211 155.884 219.151C156.067 219.092 156.227 219.007 156.364 218.898C156.501 218.788 156.609 218.66 156.686 218.513C156.72 218.993 156.682 219.381 156.572 219.678C156.463 219.974 156.299 220.191 156.081 220.327C155.863 220.463 155.61 220.53 155.322 220.53C155.061 220.53 154.845 220.458 154.673 220.312C154.501 220.166 154.39 219.977 154.34 219.744H153.184C153.209 220.096 153.324 220.404 153.529 220.666C153.734 220.928 153.999 221.131 154.324 221.275C154.648 221.419 154.997 221.491 155.372 221.491ZM154.76 218.016C154.943 218.189 155.183 218.276 155.48 218.276C155.649 218.276 155.814 218.238 155.973 218.161C156.132 218.085 156.264 217.989 156.366 217.872C156.469 217.756 156.52 217.635 156.52 217.51C156.523 217.241 156.481 217.01 156.393 216.818C156.306 216.625 156.184 216.477 156.027 216.375C155.87 216.272 155.688 216.221 155.48 216.221C155.289 216.221 155.118 216.265 154.968 216.354C154.819 216.443 154.701 216.567 154.615 216.728C154.529 216.889 154.486 217.075 154.486 217.286C154.486 217.599 154.577 217.842 154.76 218.016ZM163.104 221.4V220.377H160.038V220.322C160.038 220.139 160.093 219.983 160.204 219.852C160.315 219.722 160.462 219.605 160.645 219.501C160.828 219.397 161.029 219.295 161.246 219.195C161.464 219.095 161.682 218.987 161.901 218.871C162.121 218.754 162.322 218.618 162.505 218.463C162.688 218.308 162.835 218.12 162.946 217.901C163.057 217.682 163.112 217.422 163.112 217.119C163.112 216.756 163.023 216.438 162.846 216.167C162.668 215.895 162.417 215.683 162.091 215.53C161.765 215.378 161.377 215.301 160.928 215.301C160.404 215.301 159.968 215.393 159.622 215.576C159.275 215.759 159.015 216.006 158.842 216.318C158.668 216.63 158.579 216.978 158.573 217.361H159.734C159.784 217.008 159.914 216.745 160.125 216.57C160.336 216.395 160.592 216.308 160.895 216.308C161.186 216.308 161.415 216.384 161.583 216.537C161.751 216.689 161.835 216.886 161.835 217.128C161.835 217.316 161.778 217.48 161.664 217.618C161.551 217.757 161.4 217.883 161.213 217.995C161.026 218.107 160.82 218.219 160.595 218.33C160.371 218.441 160.147 218.559 159.923 218.683C159.7 218.808 159.495 218.953 159.308 219.118C159.121 219.283 158.97 219.477 158.856 219.701C158.743 219.924 158.686 220.188 158.686 220.493V221.4H163.104ZM167.824 220.695C167.416 221.226 166.849 221.491 166.122 221.491C165.393 221.491 164.824 221.227 164.415 220.697C164.006 220.167 163.801 219.405 163.801 218.409C163.801 217.743 163.895 217.179 164.084 216.716C164.272 216.253 164.54 215.901 164.887 215.661C165.233 215.421 165.645 215.301 166.122 215.301C166.838 215.301 167.402 215.568 167.815 216.102C168.229 216.636 168.435 217.404 168.435 218.405C168.435 219.4 168.231 220.164 167.824 220.695ZM166.122 220.497C165.762 220.497 165.496 220.336 165.324 220.015C165.152 219.693 165.066 219.158 165.066 218.409C165.066 217.646 165.152 217.097 165.326 216.762C165.499 216.426 165.763 216.258 166.118 216.258C166.473 216.258 166.735 216.425 166.904 216.757C167.074 217.09 167.158 217.641 167.158 218.409C167.158 219.16 167.075 219.696 166.909 220.017C166.742 220.337 166.48 220.497 166.122 220.497ZM172.997 220.069V221.4H171.828L171.832 220.069H169.062V219.07L171.803 215.385H172.997V219.05H173.925V220.069H172.997ZM171.832 219.05H170.185L171.832 216.845V219.05ZM107.151 226.909V227.786H106.256V226.909H107.151ZM107.134 232.92V228.618H106.277V232.92H107.134ZM110.834 232.847C110.58 232.951 110.279 233.003 109.929 233.003C109.63 233.003 109.349 232.956 109.087 232.862C108.825 232.767 108.606 232.619 108.43 232.417C108.254 232.214 108.143 231.955 108.099 231.639H108.894C108.93 231.802 108.998 231.937 109.099 232.044C109.201 232.151 109.323 232.23 109.466 232.281C109.608 232.333 109.762 232.358 109.925 232.358C110.197 232.358 110.417 232.309 110.585 232.211C110.752 232.112 110.836 231.96 110.836 231.755C110.836 231.608 110.791 231.49 110.701 231.402C110.611 231.313 110.469 231.248 110.275 231.206L109.418 231.002C109.063 230.919 108.778 230.787 108.565 230.605C108.351 230.423 108.243 230.169 108.24 229.842C108.24 229.589 108.304 229.365 108.43 229.168C108.556 228.971 108.744 228.816 108.993 228.704C109.243 228.591 109.554 228.535 109.925 228.535C110.411 228.535 110.8 228.643 111.094 228.86C111.388 229.076 111.541 229.389 111.552 229.8H110.782C110.754 229.603 110.665 229.448 110.514 229.336C110.363 229.224 110.164 229.168 109.917 229.168C109.662 229.168 109.452 229.218 109.289 229.319C109.125 229.421 109.043 229.575 109.043 229.783C109.043 229.925 109.103 230.036 109.222 230.118C109.341 230.2 109.52 230.267 109.759 230.32L110.574 230.524C110.785 230.579 110.958 230.652 111.094 230.742C111.23 230.832 111.337 230.931 111.415 231.04C111.492 231.148 111.547 231.26 111.579 231.377C111.611 231.493 111.627 231.603 111.627 231.705C111.627 231.977 111.558 232.209 111.421 232.402C111.283 232.595 111.088 232.743 110.834 232.847ZM116.009 233.003C116.325 233.003 116.608 232.942 116.859 232.82C117.11 232.698 117.314 232.527 117.471 232.308C117.628 232.089 117.721 231.836 117.752 231.547H116.995C116.972 231.677 116.921 231.804 116.841 231.926C116.76 232.048 116.651 232.148 116.514 232.225C116.377 232.303 116.215 232.342 116.029 232.342C115.644 232.342 115.351 232.2 115.15 231.917C114.949 231.634 114.848 231.255 114.848 230.778C114.848 230.256 114.956 229.869 115.172 229.617C115.389 229.365 115.669 229.238 116.013 229.238C116.201 229.238 116.364 229.275 116.502 229.349C116.639 229.422 116.748 229.52 116.83 229.642C116.912 229.764 116.965 229.896 116.99 230.037H117.76C117.727 229.738 117.632 229.475 117.477 229.251C117.322 229.026 117.119 228.851 116.868 228.725C116.617 228.598 116.33 228.535 116.009 228.535C115.59 228.535 115.23 228.63 114.929 228.818C114.628 229.007 114.399 229.27 114.241 229.609C114.083 229.947 114.004 230.339 114.004 230.786C114.004 231.26 114.089 231.663 114.259 231.994C114.43 232.326 114.666 232.577 114.969 232.747C115.271 232.918 115.618 233.003 116.009 233.003ZM121.519 232.722C121.223 232.91 120.861 233.003 120.431 233.003C120.029 233.003 119.677 232.916 119.376 232.743C119.075 232.57 118.843 232.318 118.678 231.988C118.512 231.658 118.43 231.259 118.43 230.79C118.43 230.338 118.508 229.943 118.665 229.604C118.822 229.266 119.05 229.003 119.349 228.816C119.649 228.629 120.011 228.535 120.435 228.535C120.84 228.535 121.191 228.623 121.488 228.799C121.784 228.976 122.015 229.232 122.178 229.569C122.342 229.906 122.424 230.313 122.424 230.79C122.424 231.225 122.347 231.61 122.193 231.942C122.039 232.275 121.814 232.535 121.519 232.722ZM120.435 232.317C120.166 232.317 119.948 232.246 119.782 232.105C119.616 231.963 119.495 231.775 119.42 231.539C119.345 231.303 119.308 231.045 119.308 230.765C119.308 230.449 119.35 230.175 119.435 229.943C119.519 229.712 119.645 229.533 119.811 229.407C119.978 229.281 120.186 229.218 120.435 229.218C120.701 229.218 120.916 229.287 121.08 229.426C121.244 229.564 121.362 229.751 121.436 229.985C121.509 230.219 121.546 230.479 121.546 230.765C121.546 231.073 121.504 231.344 121.421 231.578C121.338 231.813 121.214 231.994 121.049 232.123C120.884 232.252 120.679 232.317 120.435 232.317ZM124.2 230.079V232.92H123.31V228.618H124.175V229.238C124.297 229.05 124.464 228.885 124.675 228.745C124.885 228.605 125.157 228.535 125.49 228.535C125.645 228.535 125.803 228.562 125.962 228.614C126.122 228.667 126.269 228.745 126.403 228.849C126.538 228.953 126.644 229.082 126.721 229.234C126.857 229.029 127.039 228.861 127.266 228.731C127.494 228.6 127.749 228.535 128.032 228.535C128.184 228.535 128.342 228.56 128.506 228.608C128.67 228.657 128.821 228.738 128.962 228.854C129.102 228.969 129.215 229.127 129.303 229.33C129.39 229.532 129.434 229.789 129.434 230.099V232.92H128.539V230.195C128.539 229.959 128.5 229.775 128.421 229.642C128.342 229.509 128.239 229.415 128.113 229.361C127.987 229.307 127.853 229.28 127.711 229.28C127.584 229.28 127.451 229.305 127.312 229.355C127.173 229.405 127.056 229.488 126.958 229.604C126.861 229.721 126.813 229.879 126.813 230.079V232.92H125.923V230.004C125.923 229.846 125.88 229.713 125.796 229.604C125.711 229.496 125.606 229.415 125.48 229.361C125.353 229.307 125.228 229.28 125.103 229.28C124.964 229.28 124.826 229.308 124.687 229.363C124.548 229.419 124.433 229.505 124.34 229.623C124.247 229.741 124.2 229.893 124.2 230.079ZM131.405 234.259V232.179C131.455 232.274 131.518 232.369 131.594 232.464C131.671 232.56 131.763 232.649 131.871 232.731C131.979 232.812 132.104 232.878 132.246 232.928C132.387 232.978 132.546 233.003 132.724 233.003C133.093 233.003 133.412 232.916 133.681 232.743C133.95 232.57 134.157 232.314 134.303 231.976C134.448 231.637 134.521 231.218 134.521 230.719C134.521 230.223 134.448 229.813 134.303 229.49C134.157 229.167 133.955 228.927 133.695 228.77C133.436 228.614 133.137 228.535 132.799 228.535C132.619 228.535 132.454 228.559 132.306 228.606C132.157 228.653 132.026 228.716 131.911 228.795C131.796 228.874 131.696 228.96 131.613 229.053C131.53 229.146 131.462 229.24 131.409 229.334L131.401 228.618H130.511V234.259H131.405ZM131.909 232.109C132.078 232.253 132.287 232.325 132.537 232.325C132.867 232.325 133.138 232.197 133.35 231.94C133.562 231.684 133.668 231.282 133.668 230.736C133.668 230.267 133.57 229.896 133.375 229.623C133.179 229.35 132.9 229.213 132.537 229.213C132.162 229.213 131.879 229.355 131.688 229.64C131.497 229.924 131.401 230.289 131.401 230.736C131.401 231.027 131.443 231.293 131.528 231.533C131.613 231.772 131.739 231.965 131.909 232.109ZM136.574 232.978C136.638 232.978 136.707 232.971 136.78 232.957C136.854 232.943 136.925 232.925 136.994 232.903V232.338L136.77 232.329C136.606 232.315 136.485 232.256 136.406 232.15C136.327 232.045 136.287 231.892 136.287 231.693V226.738H135.409V231.784C135.409 231.937 135.423 232.084 135.449 232.227C135.475 232.37 135.529 232.498 135.609 232.61C135.69 232.722 135.807 232.812 135.961 232.878C136.115 232.945 136.319 232.978 136.574 232.978ZM140.479 232.847C140.219 232.951 139.946 233.003 139.66 233.003C139.252 233.003 138.893 232.915 138.582 232.739C138.272 232.563 138.03 232.311 137.857 231.984C137.683 231.657 137.597 231.267 137.597 230.815C137.597 230.368 137.676 229.974 137.834 229.631C137.992 229.289 138.221 229.021 138.52 228.826C138.82 228.632 139.18 228.535 139.602 228.535C140.018 228.535 140.368 228.624 140.652 228.802C140.936 228.979 141.152 229.228 141.299 229.548C141.446 229.869 141.519 230.246 141.519 230.682V230.977H138.491C138.491 231.235 138.533 231.466 138.618 231.67C138.702 231.874 138.831 232.035 139.003 232.152C139.175 232.27 139.388 232.329 139.643 232.329C139.898 232.329 140.12 232.271 140.307 232.154C140.494 232.038 140.617 231.865 140.675 231.634H141.499C141.449 231.928 141.331 232.178 141.147 232.383C140.963 232.589 140.74 232.743 140.479 232.847ZM140.671 230.399H138.491C138.491 230.202 138.532 230.011 138.614 229.825C138.695 229.639 138.818 229.487 138.982 229.367C139.145 229.248 139.351 229.188 139.597 229.188C139.839 229.188 140.039 229.242 140.199 229.349C140.358 229.455 140.477 229.601 140.554 229.785C140.632 229.97 140.671 230.174 140.671 230.399ZM144.398 232.924C144.289 232.941 144.148 232.949 143.976 232.949C143.657 232.949 143.409 232.906 143.233 232.82C143.057 232.734 142.935 232.61 142.867 232.448C142.799 232.286 142.765 232.089 142.765 231.859V229.259H142.066V228.618H142.79L143.011 227.354H143.656V228.614H144.621V229.259H143.656L143.66 231.826C143.66 231.967 143.674 232.071 143.703 232.136C143.732 232.201 143.782 232.243 143.853 232.261C143.924 232.279 144.02 232.288 144.142 232.288H144.646V232.866C144.59 232.888 144.508 232.907 144.398 232.924ZM147.326 233.003C147.611 233.003 147.884 232.951 148.145 232.847C148.406 232.743 148.628 232.589 148.813 232.383C148.997 232.178 149.114 231.928 149.164 231.634H148.341C148.282 231.865 148.16 232.038 147.973 232.154C147.785 232.271 147.564 232.329 147.309 232.329C147.054 232.329 146.84 232.27 146.668 232.152C146.496 232.035 146.368 231.874 146.284 231.67C146.199 231.466 146.157 231.235 146.157 230.977H149.185V230.682C149.185 230.246 149.112 229.869 148.965 229.548C148.818 229.228 148.602 228.979 148.318 228.802C148.034 228.624 147.683 228.535 147.267 228.535C146.846 228.535 146.485 228.632 146.186 228.826C145.886 229.021 145.657 229.289 145.499 229.631C145.341 229.974 145.262 230.368 145.262 230.815C145.262 231.267 145.349 231.657 145.522 231.984C145.696 232.311 145.938 232.563 146.248 232.739C146.559 232.915 146.918 233.003 147.326 233.003ZM146.157 230.399H148.337C148.337 230.174 148.298 229.97 148.22 229.785C148.142 229.601 148.024 229.455 147.864 229.349C147.705 229.242 147.505 229.188 147.263 229.188C147.016 229.188 146.811 229.248 146.648 229.367C146.484 229.487 146.361 229.639 146.279 229.825C146.198 230.011 146.157 230.202 146.157 230.399ZM151.683 233.003C151.922 233.003 152.126 232.971 152.295 232.907C152.464 232.844 152.603 232.762 152.713 232.662C152.822 232.562 152.909 232.457 152.973 232.346C153.037 232.235 153.084 232.132 153.114 232.038L153.214 232.92H153.88V226.738H152.985V229.272C152.944 229.197 152.885 229.116 152.808 229.03C152.732 228.944 152.637 228.864 152.521 228.789C152.406 228.714 152.273 228.653 152.122 228.606C151.971 228.559 151.798 228.535 151.604 228.535C151.221 228.535 150.9 228.627 150.641 228.81C150.382 228.993 150.187 229.25 150.057 229.582C149.926 229.913 149.861 230.302 149.861 230.748C149.861 231.478 150.023 232.036 150.348 232.423C150.672 232.81 151.117 233.003 151.683 233.003ZM151.032 231.917C151.222 232.195 151.496 232.333 151.854 232.333C152.253 232.333 152.542 232.208 152.719 231.957C152.897 231.706 152.985 231.293 152.985 230.719C152.982 230.395 152.942 230.12 152.865 229.896C152.787 229.671 152.667 229.501 152.505 229.386C152.343 229.271 152.13 229.213 151.866 229.213C151.536 229.213 151.267 229.332 151.059 229.569C150.851 229.806 150.747 230.19 150.747 230.719C150.747 231.241 150.842 231.64 151.032 231.917ZM158.043 233.003C158.351 233.003 158.627 232.94 158.873 232.814C159.118 232.688 159.321 232.46 159.482 232.13L159.553 232.92H160.306V229.912C160.306 229.618 160.244 229.369 160.121 229.163C159.997 228.958 159.81 228.802 159.557 228.695C159.305 228.589 158.983 228.535 158.592 228.535C158.24 228.535 157.933 228.585 157.673 228.685C157.412 228.785 157.208 228.933 157.059 229.128C156.911 229.324 156.828 229.564 156.812 229.85H157.585C157.641 229.609 157.758 229.435 157.937 229.33C158.116 229.224 158.32 229.172 158.55 229.172C158.856 229.169 159.082 229.238 159.229 229.38C159.376 229.521 159.449 229.715 159.449 229.962V230.274L158.742 230.295C158.001 230.309 157.462 230.434 157.124 230.669C156.785 230.905 156.616 231.261 156.616 231.738C156.616 232.005 156.677 232.232 156.799 232.421C156.921 232.609 157.09 232.754 157.305 232.853C157.52 232.953 157.766 233.003 158.043 233.003ZM157.714 232.19C157.875 232.319 158.078 232.383 158.322 232.383C158.458 232.383 158.592 232.359 158.725 232.31C158.858 232.262 158.979 232.195 159.087 232.111C159.195 232.026 159.282 231.931 159.347 231.826C159.412 231.72 159.446 231.612 159.449 231.501V230.79L158.867 230.802C158.57 230.805 158.318 230.836 158.112 230.894C157.905 230.952 157.747 231.042 157.637 231.164C157.528 231.286 157.473 231.449 157.473 231.651C157.473 231.881 157.553 232.061 157.714 232.19ZM162.381 232.92V230.079C162.381 229.901 162.43 229.753 162.527 229.636C162.624 229.518 162.751 229.43 162.909 229.371C163.067 229.313 163.234 229.284 163.409 229.284C163.669 229.284 163.882 229.359 164.047 229.509C164.212 229.658 164.295 229.887 164.295 230.195V232.92H165.185V230.099C165.185 229.742 165.116 229.45 164.977 229.224C164.838 228.998 164.654 228.831 164.426 228.725C164.197 228.618 163.948 228.564 163.679 228.564C163.452 228.564 163.251 228.596 163.078 228.66C162.904 228.724 162.759 228.807 162.641 228.91C162.523 229.012 162.43 229.122 162.36 229.238V228.618H161.491V232.92H162.381ZM168.443 232.907C168.274 232.971 168.07 233.003 167.832 233.003C167.266 233.003 166.821 232.81 166.497 232.423C166.172 232.036 166.01 231.478 166.01 230.748C166.01 230.302 166.075 229.913 166.205 229.582C166.336 229.25 166.53 228.993 166.79 228.81C167.049 228.627 167.37 228.535 167.753 228.535C167.947 228.535 168.12 228.559 168.271 228.606C168.422 228.653 168.555 228.714 168.67 228.789C168.785 228.864 168.881 228.944 168.957 229.03C169.033 229.116 169.092 229.197 169.134 229.272V226.738H170.028V232.92H169.363L169.263 232.038C169.232 232.132 169.185 232.235 169.121 232.346C169.058 232.457 168.971 232.562 168.861 232.662C168.752 232.762 168.613 232.844 168.443 232.907ZM168.002 232.333C167.645 232.333 167.371 232.195 167.181 231.917C166.991 231.64 166.896 231.241 166.896 230.719C166.896 230.19 167 229.806 167.208 229.569C167.416 229.332 167.685 229.213 168.015 229.213C168.278 229.213 168.491 229.271 168.653 229.386C168.816 229.501 168.936 229.671 169.013 229.896C169.091 230.12 169.131 230.395 169.134 230.719C169.134 231.293 169.045 231.706 168.868 231.957C168.69 232.208 168.402 232.333 168.002 232.333ZM94.8901 243.699V245.779H93.9957V240.138H94.886L94.8943 240.854C94.947 240.76 95.0149 240.666 95.0981 240.573C95.1813 240.48 95.2805 240.394 95.3956 240.315C95.5107 240.236 95.6424 240.173 95.7908 240.126C95.9391 240.079 96.1035 240.055 96.2837 240.055C96.6221 240.055 96.9209 240.134 97.1802 240.29C97.4395 240.447 97.642 240.687 97.7876 241.01C97.9332 241.333 98.006 241.743 98.006 242.239C98.006 242.738 97.9332 243.157 97.7876 243.496C97.642 243.834 97.4347 244.09 97.1656 244.263C96.8966 244.436 96.5777 244.523 96.2088 244.523C96.0314 244.523 95.8719 244.498 95.7304 244.448C95.589 244.398 95.4642 244.332 95.356 244.251C95.2479 244.169 95.1557 244.08 95.0794 243.984C95.0031 243.889 94.94 243.794 94.8901 243.699ZM96.0216 243.845C95.772 243.845 95.5627 243.773 95.3935 243.629C95.2243 243.485 95.0974 243.292 95.0128 243.053C94.9283 242.813 94.886 242.547 94.886 242.256C94.886 241.809 94.9816 241.444 95.173 241.16C95.3644 240.875 95.6472 240.733 96.0216 240.733C96.385 240.733 96.6644 240.87 96.8599 241.143C97.0554 241.416 97.1532 241.787 97.1532 242.256C97.1532 242.802 97.0471 243.204 96.8349 243.46C96.6228 243.717 96.3517 243.845 96.0216 243.845ZM99.7846 241.852V244.44H98.8943V240.138H99.7471V241.02C99.8193 240.81 99.9198 240.633 100.049 240.49C100.178 240.347 100.328 240.239 100.5 240.166C100.672 240.092 100.854 240.055 101.045 240.055C101.103 240.055 101.159 240.059 101.211 240.066C101.264 240.073 101.306 240.084 101.336 240.101V240.958C101.3 240.941 101.254 240.93 101.197 240.925C101.14 240.919 101.091 240.915 101.049 240.912C100.861 240.898 100.689 240.908 100.533 240.941C100.378 240.975 100.244 241.03 100.132 241.108C100.02 241.185 99.9337 241.287 99.874 241.411C99.8144 241.536 99.7846 241.683 99.7846 241.852ZM103.771 244.523C104.2 244.523 104.563 244.43 104.858 244.242C105.154 244.055 105.378 243.795 105.532 243.462C105.686 243.13 105.763 242.745 105.763 242.31C105.763 241.833 105.681 241.426 105.518 241.089C105.354 240.752 105.124 240.496 104.827 240.319C104.531 240.143 104.18 240.055 103.775 240.055C103.35 240.055 102.989 240.149 102.689 240.336C102.389 240.523 102.161 240.786 102.005 241.124C101.848 241.463 101.77 241.858 101.77 242.31C101.77 242.779 101.852 243.178 102.017 243.508C102.182 243.838 102.415 244.09 102.716 244.263C103.017 244.436 103.368 244.523 103.771 244.523ZM103.122 243.625C103.288 243.766 103.506 243.837 103.775 243.837C104.019 243.837 104.223 243.772 104.388 243.643C104.553 243.514 104.677 243.333 104.761 243.098C104.844 242.864 104.885 242.593 104.885 242.285C104.885 241.999 104.849 241.739 104.775 241.505C104.702 241.271 104.583 241.084 104.42 240.946C104.256 240.807 104.041 240.738 103.775 240.738C103.525 240.738 103.317 240.801 103.151 240.927C102.984 241.053 102.859 241.232 102.774 241.463C102.69 241.695 102.647 241.969 102.647 242.285C102.647 242.565 102.685 242.823 102.76 243.059C102.835 243.295 102.955 243.483 103.122 243.625ZM108.401 244.523C108.717 244.523 109.001 244.462 109.252 244.34C109.503 244.218 109.707 244.047 109.863 243.828C110.02 243.609 110.114 243.356 110.144 243.067H109.387C109.365 243.197 109.314 243.324 109.233 243.446C109.153 243.568 109.044 243.668 108.907 243.745C108.769 243.823 108.608 243.862 108.422 243.862C108.036 243.862 107.743 243.72 107.542 243.437C107.341 243.154 107.241 242.775 107.241 242.298C107.241 241.776 107.349 241.389 107.565 241.137C107.781 240.885 108.061 240.758 108.405 240.758C108.594 240.758 108.757 240.795 108.894 240.869C109.031 240.942 109.141 241.04 109.223 241.162C109.305 241.284 109.358 241.416 109.383 241.557H110.153C110.119 241.258 110.025 240.995 109.87 240.771C109.714 240.546 109.511 240.371 109.26 240.245C109.009 240.118 108.723 240.055 108.401 240.055C107.982 240.055 107.623 240.15 107.322 240.338C107.021 240.527 106.791 240.79 106.633 241.129C106.475 241.467 106.396 241.859 106.396 242.306C106.396 242.78 106.481 243.183 106.652 243.514C106.822 243.846 107.059 244.097 107.361 244.267C107.663 244.438 108.01 244.523 108.401 244.523ZM113.739 244.367C113.478 244.471 113.205 244.523 112.919 244.523C112.511 244.523 112.152 244.435 111.842 244.259C111.531 244.083 111.289 243.831 111.116 243.504C110.942 243.177 110.856 242.787 110.856 242.335C110.856 241.888 110.935 241.494 111.093 241.151C111.251 240.809 111.48 240.541 111.779 240.346C112.079 240.152 112.439 240.055 112.861 240.055C113.277 240.055 113.627 240.144 113.911 240.322C114.196 240.499 114.411 240.748 114.558 241.068C114.705 241.389 114.779 241.766 114.779 242.202V242.497H111.75C111.75 242.755 111.792 242.986 111.877 243.19C111.962 243.394 112.09 243.555 112.262 243.672C112.434 243.79 112.647 243.849 112.903 243.849C113.158 243.849 113.379 243.791 113.566 243.674C113.753 243.558 113.876 243.385 113.934 243.154H114.758C114.708 243.448 114.591 243.698 114.406 243.903C114.222 244.109 113.999 244.263 113.739 244.367ZM113.93 241.919H111.75C111.75 241.722 111.791 241.531 111.873 241.345C111.955 241.159 112.077 241.007 112.241 240.887C112.405 240.768 112.61 240.708 112.857 240.708C113.098 240.708 113.298 240.762 113.458 240.869C113.617 240.975 113.736 241.121 113.814 241.305C113.891 241.49 113.93 241.694 113.93 241.919ZM118.165 244.367C117.911 244.471 117.61 244.523 117.26 244.523C116.961 244.523 116.68 244.476 116.418 244.382C116.156 244.287 115.936 244.139 115.76 243.937C115.584 243.734 115.474 243.475 115.43 243.159H116.224C116.26 243.322 116.329 243.457 116.43 243.564C116.531 243.671 116.653 243.75 116.796 243.801C116.939 243.853 117.092 243.878 117.256 243.878C117.528 243.878 117.747 243.829 117.915 243.731C118.083 243.632 118.167 243.48 118.167 243.275C118.167 243.128 118.122 243.01 118.032 242.922C117.942 242.833 117.799 242.768 117.605 242.726L116.748 242.522C116.393 242.439 116.109 242.307 115.896 242.125C115.682 241.943 115.574 241.689 115.571 241.362C115.571 241.109 115.634 240.885 115.76 240.688C115.887 240.491 116.074 240.336 116.324 240.224C116.574 240.111 116.884 240.055 117.256 240.055C117.741 240.055 118.131 240.163 118.425 240.38C118.719 240.596 118.871 240.909 118.882 241.32H118.113C118.085 241.123 117.996 240.968 117.845 240.856C117.693 240.744 117.494 240.688 117.248 240.688C116.992 240.688 116.783 240.738 116.619 240.839C116.456 240.941 116.374 241.095 116.374 241.303C116.374 241.445 116.434 241.556 116.553 241.638C116.672 241.72 116.851 241.787 117.09 241.84L117.905 242.044C118.116 242.099 118.289 242.172 118.425 242.262C118.561 242.352 118.668 242.451 118.745 242.56C118.823 242.668 118.878 242.78 118.91 242.897C118.941 243.013 118.957 243.123 118.957 243.225C118.957 243.497 118.889 243.729 118.751 243.922C118.614 244.115 118.419 244.263 118.165 244.367ZM121.414 244.523C121.763 244.523 122.065 244.471 122.319 244.367C122.573 244.263 122.768 244.115 122.905 243.922C123.043 243.729 123.111 243.497 123.111 243.225C123.111 243.123 123.095 243.013 123.063 242.897C123.032 242.78 122.977 242.668 122.899 242.56C122.822 242.451 122.715 242.352 122.579 242.262C122.443 242.172 122.27 242.099 122.059 242.044L121.243 241.84C121.005 241.787 120.826 241.72 120.707 241.638C120.588 241.556 120.528 241.445 120.528 241.303C120.528 241.095 120.61 240.941 120.773 240.839C120.937 240.738 121.146 240.688 121.402 240.688C121.648 240.688 121.847 240.744 121.999 240.856C122.15 240.968 122.239 241.123 122.267 241.32H123.036C123.025 240.909 122.873 240.596 122.579 240.38C122.285 240.163 121.895 240.055 121.41 240.055C121.038 240.055 120.728 240.111 120.478 240.224C120.228 240.336 120.041 240.491 119.914 240.688C119.788 240.885 119.725 241.109 119.725 241.362C119.728 241.689 119.836 241.943 120.05 242.125C120.263 242.307 120.547 242.439 120.902 242.522L121.759 242.726C121.953 242.768 122.096 242.833 122.186 242.922C122.276 243.01 122.321 243.128 122.321 243.275C122.321 243.48 122.237 243.632 122.069 243.731C121.901 243.829 121.682 243.878 121.41 243.878C121.246 243.878 121.093 243.853 120.95 243.801C120.807 243.75 120.685 243.671 120.584 243.564C120.483 243.457 120.414 243.322 120.378 243.159H119.584C119.628 243.475 119.738 243.734 119.914 243.937C120.09 244.139 120.31 244.287 120.572 244.382C120.834 244.476 121.115 244.523 121.414 244.523ZM126.72 244.367C126.46 244.471 126.186 244.523 125.901 244.523C125.493 244.523 125.134 244.435 124.823 244.259C124.513 244.083 124.271 243.831 124.097 243.504C123.924 243.177 123.837 242.787 123.837 242.335C123.837 241.888 123.917 241.494 124.075 241.151C124.233 240.809 124.461 240.541 124.761 240.346C125.061 240.152 125.421 240.055 125.843 240.055C126.259 240.055 126.609 240.144 126.893 240.322C127.177 240.499 127.393 240.748 127.54 241.068C127.687 241.389 127.76 241.766 127.76 242.202V242.497H124.732C124.732 242.755 124.774 242.986 124.859 243.19C124.943 243.394 125.072 243.555 125.244 243.672C125.415 243.79 125.629 243.849 125.884 243.849C126.139 243.849 126.361 243.791 126.548 243.674C126.735 243.558 126.858 243.385 126.916 243.154H127.74C127.69 243.448 127.572 243.698 127.388 243.903C127.204 244.109 126.981 244.263 126.72 244.367ZM126.912 241.919H124.732C124.732 241.722 124.773 241.531 124.855 241.345C124.936 241.159 125.059 241.007 125.223 240.887C125.386 240.768 125.592 240.708 125.838 240.708C126.08 240.708 126.28 240.762 126.44 240.869C126.599 240.975 126.718 241.121 126.795 241.305C126.873 241.49 126.912 241.694 126.912 241.919ZM130.87 244.427C130.701 244.491 130.497 244.523 130.258 244.523C129.693 244.523 129.248 244.33 128.923 243.943C128.599 243.556 128.436 242.998 128.436 242.268C128.436 241.822 128.501 241.433 128.632 241.102C128.762 240.77 128.957 240.513 129.216 240.33C129.476 240.147 129.797 240.055 130.179 240.055C130.373 240.055 130.546 240.079 130.697 240.126C130.848 240.173 130.982 240.234 131.097 240.309C131.212 240.384 131.307 240.464 131.384 240.55C131.46 240.636 131.519 240.717 131.56 240.792V238.258H132.455V244.44H131.789L131.689 243.558C131.659 243.652 131.612 243.755 131.548 243.866C131.484 243.977 131.398 244.082 131.288 244.182C131.178 244.282 131.039 244.364 130.87 244.427ZM130.429 243.853C130.071 243.853 129.797 243.715 129.607 243.437C129.417 243.16 129.322 242.761 129.322 242.239C129.322 241.71 129.426 241.326 129.634 241.089C129.842 240.852 130.111 240.733 130.441 240.733C130.705 240.733 130.918 240.791 131.08 240.906C131.242 241.021 131.362 241.191 131.44 241.416C131.517 241.64 131.558 241.915 131.56 242.239C131.56 242.813 131.472 243.226 131.294 243.477C131.117 243.728 130.828 243.853 130.429 243.853ZM137.893 244.367C137.639 244.471 137.338 244.523 136.988 244.523C136.689 244.523 136.408 244.476 136.146 244.382C135.884 244.287 135.665 244.139 135.489 243.937C135.313 243.734 135.202 243.475 135.158 243.159H135.953C135.989 243.322 136.057 243.457 136.158 243.564C136.26 243.671 136.382 243.75 136.525 243.801C136.667 243.853 136.821 243.878 136.984 243.878C137.256 243.878 137.476 243.829 137.644 243.731C137.811 243.632 137.895 243.48 137.895 243.275C137.895 243.128 137.85 243.01 137.76 242.922C137.67 242.833 137.528 242.768 137.334 242.726L136.477 242.522C136.122 242.439 135.837 242.307 135.624 242.125C135.41 241.943 135.302 241.689 135.299 241.362C135.299 241.109 135.363 240.885 135.489 240.688C135.615 240.491 135.803 240.336 136.052 240.224C136.302 240.111 136.613 240.055 136.984 240.055C137.47 240.055 137.859 240.163 138.153 240.38C138.447 240.596 138.6 240.909 138.611 241.32H137.841C137.813 241.123 137.724 240.968 137.573 240.856C137.422 240.744 137.223 240.688 136.976 240.688C136.721 240.688 136.511 240.738 136.348 240.839C136.184 240.941 136.102 241.095 136.102 241.303C136.102 241.445 136.162 241.556 136.281 241.638C136.4 241.72 136.579 241.787 136.818 241.84L137.633 242.044C137.844 242.099 138.017 242.172 138.153 242.262C138.289 242.352 138.396 242.451 138.474 242.56C138.551 242.668 138.606 242.78 138.638 242.897C138.67 243.013 138.686 243.123 138.686 243.225C138.686 243.497 138.617 243.729 138.48 243.922C138.342 244.115 138.147 244.263 137.893 244.367ZM141.213 244.523C141.41 244.526 141.597 244.497 141.773 244.438C141.949 244.378 142.101 244.281 142.23 244.147C142.359 244.012 142.449 243.833 142.499 243.608L142.598 244.44H143.289V240.138H142.403V242.938C142.403 243.235 142.314 243.46 142.137 243.614C141.959 243.768 141.723 243.845 141.429 243.845C141.105 243.845 140.862 243.765 140.701 243.604C140.541 243.443 140.46 243.234 140.46 242.976V240.138H139.566V243.071C139.566 243.31 139.611 243.519 139.701 243.699C139.791 243.88 139.913 244.031 140.067 244.153C140.221 244.275 140.396 244.366 140.593 244.427C140.79 244.488 140.997 244.52 141.213 244.523ZM146.969 244.34C146.718 244.462 146.435 244.523 146.118 244.523C145.727 244.523 145.381 244.438 145.078 244.267C144.776 244.097 144.54 243.846 144.369 243.514C144.199 243.183 144.113 242.78 144.113 242.306C144.113 241.859 144.192 241.467 144.35 241.129C144.509 240.79 144.738 240.527 145.039 240.338C145.34 240.15 145.7 240.055 146.118 240.055C146.44 240.055 146.727 240.118 146.978 240.245C147.229 240.371 147.432 240.546 147.587 240.771C147.742 240.995 147.837 241.258 147.87 241.557H147.1C147.075 241.416 147.022 241.284 146.94 241.162C146.858 241.04 146.749 240.942 146.611 240.869C146.474 240.795 146.311 240.758 146.123 240.758C145.779 240.758 145.499 240.885 145.282 241.137C145.066 241.389 144.958 241.776 144.958 242.298C144.958 242.775 145.058 243.154 145.259 243.437C145.461 243.72 145.754 243.862 146.139 243.862C146.325 243.862 146.487 243.823 146.624 243.745C146.761 243.668 146.87 243.568 146.95 243.446C147.031 243.324 147.082 243.197 147.104 243.067H147.862C147.831 243.356 147.737 243.609 147.581 243.828C147.424 244.047 147.22 244.218 146.969 244.34ZM150.545 244.523C150.861 244.523 151.145 244.462 151.396 244.34C151.647 244.218 151.85 244.047 152.007 243.828C152.164 243.609 152.257 243.356 152.288 243.067H151.531C151.509 243.197 151.457 243.324 151.377 243.446C151.297 243.568 151.188 243.668 151.05 243.745C150.913 243.823 150.752 243.862 150.566 243.862C150.18 243.862 149.887 243.72 149.686 243.437C149.485 243.154 149.384 242.775 149.384 242.298C149.384 241.776 149.492 241.389 149.709 241.137C149.925 240.885 150.205 240.758 150.549 240.758C150.738 240.758 150.901 240.795 151.038 240.869C151.175 240.942 151.285 241.04 151.367 241.162C151.448 241.284 151.502 241.416 151.527 241.557H152.296C152.263 241.258 152.169 240.995 152.013 240.771C151.858 240.546 151.655 240.371 151.404 240.245C151.153 240.118 150.867 240.055 150.545 240.055C150.126 240.055 149.766 240.15 149.465 240.338C149.165 240.527 148.935 240.79 148.777 241.129C148.619 241.467 148.54 241.859 148.54 242.306C148.54 242.78 148.625 243.183 148.796 243.514C148.966 243.846 149.203 244.097 149.505 244.267C149.807 244.438 150.154 244.523 150.545 244.523ZM155.882 244.367C155.622 244.471 155.349 244.523 155.063 244.523C154.655 244.523 154.296 244.435 153.985 244.259C153.675 244.083 153.433 243.831 153.26 243.504C153.086 243.177 153 242.787 153 242.335C153 241.888 153.079 241.494 153.237 241.151C153.395 240.809 153.624 240.541 153.923 240.346C154.223 240.152 154.583 240.055 155.005 240.055C155.421 240.055 155.771 240.144 156.055 240.322C156.339 240.499 156.555 240.748 156.702 241.068C156.849 241.389 156.922 241.766 156.922 242.202V242.497H153.894C153.894 242.755 153.936 242.986 154.021 243.19C154.105 243.394 154.234 243.555 154.406 243.672C154.578 243.79 154.791 243.849 155.046 243.849C155.301 243.849 155.523 243.791 155.71 243.674C155.897 243.558 156.02 243.385 156.078 243.154H156.902C156.852 243.448 156.735 243.698 156.55 243.903C156.366 244.109 156.143 244.263 155.882 244.367ZM156.074 241.919H153.894C153.894 241.722 153.935 241.531 154.017 241.345C154.098 241.159 154.221 241.007 154.385 240.887C154.548 240.768 154.754 240.708 155.001 240.708C155.242 240.708 155.442 240.762 155.602 240.869C155.761 240.975 155.88 241.121 155.957 241.305C156.035 241.49 156.074 241.694 156.074 241.919ZM160.309 244.367C160.055 244.471 159.753 244.523 159.404 244.523C159.104 244.523 158.824 244.476 158.561 244.382C158.299 244.287 158.08 244.139 157.904 243.937C157.728 243.734 157.618 243.475 157.573 243.159H158.368C158.404 243.322 158.473 243.457 158.574 243.564C158.675 243.671 158.797 243.75 158.94 243.801C159.083 243.853 159.236 243.878 159.4 243.878C159.671 243.878 159.891 243.829 160.059 243.731C160.227 243.632 160.311 243.48 160.311 243.275C160.311 243.128 160.266 243.01 160.176 242.922C160.085 242.833 159.943 242.768 159.749 242.726L158.892 242.522C158.537 242.439 158.253 242.307 158.039 242.125C157.826 241.943 157.718 241.689 157.715 241.362C157.715 241.109 157.778 240.885 157.904 240.688C158.03 240.491 158.218 240.336 158.468 240.224C158.717 240.111 159.028 240.055 159.4 240.055C159.885 240.055 160.275 240.163 160.569 240.38C160.863 240.596 161.015 240.909 161.026 241.32H160.257C160.229 241.123 160.139 240.968 159.988 240.856C159.837 240.744 159.638 240.688 159.391 240.688C159.136 240.688 158.927 240.738 158.763 240.839C158.6 240.941 158.518 241.095 158.518 241.303C158.518 241.445 158.577 241.556 158.697 241.638C158.816 241.72 158.995 241.787 159.233 241.84L160.049 242.044C160.259 242.099 160.433 242.172 160.569 242.262C160.705 242.352 160.811 242.451 160.889 242.56C160.967 242.668 161.021 242.78 161.053 242.897C161.085 243.013 161.101 243.123 161.101 243.225C161.101 243.497 161.032 243.729 160.895 243.922C160.758 244.115 160.562 244.263 160.309 244.367ZM163.558 244.523C163.907 244.523 164.209 244.471 164.463 244.367C164.716 244.263 164.912 244.115 165.049 243.922C165.186 243.729 165.255 243.497 165.255 243.225C165.255 243.123 165.239 243.013 165.207 242.897C165.175 242.78 165.121 242.668 165.043 242.56C164.965 242.451 164.859 242.352 164.723 242.262C164.587 242.172 164.413 242.099 164.203 242.044L163.387 241.84C163.149 241.787 162.97 241.72 162.851 241.638C162.731 241.556 162.672 241.445 162.672 241.303C162.672 241.095 162.754 240.941 162.917 240.839C163.081 240.738 163.29 240.688 163.545 240.688C163.792 240.688 163.991 240.744 164.142 240.856C164.293 240.968 164.383 241.123 164.411 241.32H165.18C165.169 240.909 165.017 240.596 164.723 240.38C164.429 240.163 164.039 240.055 163.554 240.055C163.182 240.055 162.871 240.111 162.622 240.224C162.372 240.336 162.184 240.491 162.058 240.688C161.932 240.885 161.869 241.109 161.869 241.362C161.872 241.689 161.98 241.943 162.193 242.125C162.407 242.307 162.691 242.439 163.046 242.522L163.903 242.726C164.097 242.768 164.239 242.833 164.33 242.922C164.42 243.01 164.465 243.128 164.465 243.275C164.465 243.48 164.381 243.632 164.213 243.731C164.045 243.829 163.825 243.878 163.554 243.878C163.39 243.878 163.237 243.853 163.094 243.801C162.951 243.75 162.829 243.671 162.728 243.564C162.627 243.457 162.558 243.322 162.522 243.159H161.727C161.772 243.475 161.882 243.734 162.058 243.937C162.234 244.139 162.453 244.287 162.715 244.382C162.978 244.476 163.258 244.523 163.558 244.523ZM167.679 240.779V244.44H166.784V240.779H165.906V240.138H166.784V239.485C166.784 239.141 166.876 238.879 167.059 238.697C167.242 238.515 167.511 238.425 167.866 238.425H168.723L168.727 239.04H168.107C167.935 239.04 167.818 239.085 167.755 239.175C167.693 239.266 167.662 239.404 167.662 239.589V240.138H168.685V240.779H167.679ZM171.085 244.523C171.282 244.526 171.468 244.497 171.644 244.438C171.82 244.378 171.973 244.281 172.102 244.147C172.231 244.012 172.32 243.833 172.37 243.608L172.47 244.44H173.161V240.138H172.275V242.938C172.275 243.235 172.186 243.46 172.008 243.614C171.831 243.768 171.595 243.845 171.301 243.845C170.977 243.845 170.734 243.765 170.573 243.604C170.412 243.443 170.332 243.234 170.332 242.976V240.138H169.437V243.071C169.437 243.31 169.482 243.519 169.573 243.699C169.663 243.88 169.785 244.031 169.939 244.153C170.093 244.275 170.268 244.366 170.465 244.427C170.662 244.488 170.868 244.52 171.085 244.523ZM175.655 244.477C175.582 244.491 175.513 244.498 175.449 244.498C175.194 244.498 174.99 244.465 174.836 244.398C174.682 244.332 174.565 244.242 174.484 244.13C174.404 244.018 174.35 243.89 174.324 243.747C174.298 243.604 174.285 243.457 174.285 243.304V238.258H175.162V243.213C175.162 243.412 175.202 243.565 175.281 243.67C175.36 243.776 175.481 243.835 175.645 243.849L175.869 243.858V244.423C175.8 244.445 175.729 244.463 175.655 244.477ZM177.799 244.498C177.862 244.498 177.931 244.491 178.005 244.477C178.078 244.463 178.149 244.445 178.219 244.423V243.858L177.994 243.849C177.831 243.835 177.709 243.776 177.63 243.67C177.551 243.565 177.512 243.412 177.512 243.213V238.258H176.634V243.304C176.634 243.457 176.647 243.604 176.673 243.747C176.7 243.89 176.753 244.018 176.834 244.13C176.914 244.242 177.031 244.332 177.185 244.398C177.339 244.465 177.544 244.498 177.799 244.498ZM179.99 245.717C179.815 245.781 179.625 245.813 179.42 245.813C179.157 245.813 178.974 245.793 178.873 245.754L178.721 245.696V245.122L179.158 245.13C179.324 245.139 179.461 245.129 179.568 245.101C179.674 245.074 179.759 245.035 179.821 244.987C179.884 244.938 179.932 244.886 179.965 244.831C179.998 244.775 180.023 244.724 180.04 244.677L180.173 244.315L178.496 240.138H179.387L180.593 243.317L181.791 240.138H182.665L180.872 244.681C180.75 244.981 180.616 245.212 180.47 245.376C180.325 245.54 180.165 245.653 179.99 245.717Z" fill="#36536B"/>
<g id="Group 31">
<circle id="Oval" opacity="0.25" cx="137.12" cy="186.84" r="17.92" fill="#BA4270"/>
<path id="Path 2" d="M131.36 187.925L134.289 190.855L142.784 182.36" stroke="#BA4270" stroke-width="3"/>
</g>
</g>
</g>
</g>
<g id="Group 2 Copy">
<rect id="Rectangle_2" x="96.16" y="258.52" width="83.84" height="19.2" rx="9.6" fill="#BA4270"/>
<path id="Dismiss" fill-rule="evenodd" clip-rule="evenodd" d="M128.985 270.367C128.59 270.576 128.088 270.68 127.48 270.68H125.995V265.59H126.63C126.791 265.59 126.952 265.591 127.113 265.592C127.273 265.593 127.408 265.595 127.516 265.597C128.133 265.611 128.636 265.722 129.026 265.928C129.415 266.135 129.701 266.423 129.883 266.794C130.065 267.165 130.156 267.604 130.156 268.111C130.156 268.639 130.059 269.094 129.867 269.478C129.675 269.862 129.381 270.158 128.985 270.367ZM127.03 269.85H127.502C127.793 269.85 128.057 269.793 128.295 269.681C128.534 269.568 128.724 269.384 128.867 269.128C129.01 268.872 129.082 268.531 129.082 268.104C129.082 267.707 129.019 267.385 128.892 267.137C128.765 266.89 128.585 266.709 128.35 266.594C128.115 266.479 127.837 266.421 127.516 266.421H127.03V269.85ZM131.925 266.52V265.594H130.925V266.52H131.925ZM131.914 267.041V270.68H130.932V267.041H131.914ZM134.233 270.751C134.535 270.751 134.802 270.706 135.032 270.617C135.262 270.528 135.441 270.398 135.57 270.228C135.699 270.058 135.764 269.852 135.764 269.61C135.764 269.528 135.75 269.436 135.723 269.334C135.696 269.232 135.648 269.13 135.577 269.029C135.507 268.928 135.408 268.835 135.28 268.75C135.152 268.664 134.986 268.596 134.782 268.547L134.19 268.413C133.993 268.373 133.848 268.326 133.754 268.271C133.66 268.216 133.613 268.14 133.613 268.044C133.613 267.915 133.671 267.818 133.786 267.755C133.901 267.692 134.047 267.66 134.226 267.66C134.397 267.66 134.539 267.698 134.653 267.774C134.767 267.851 134.837 267.959 134.863 268.1H135.722C135.717 267.741 135.58 267.463 135.311 267.266C135.043 267.069 134.684 266.97 134.236 266.97C133.905 266.97 133.626 267.021 133.398 267.122C133.171 267.222 132.999 267.36 132.883 267.533C132.767 267.707 132.708 267.903 132.708 268.121C132.713 268.422 132.813 268.653 133.008 268.816C133.202 268.98 133.461 269.095 133.782 269.163L134.423 269.297C134.587 269.327 134.705 269.372 134.776 269.431C134.848 269.489 134.884 269.568 134.884 269.666C134.884 269.796 134.823 269.891 134.703 269.953C134.582 270.016 134.423 270.047 134.226 270.047C134.132 270.047 134.033 270.031 133.93 269.999C133.827 269.967 133.735 269.914 133.654 269.839C133.573 269.764 133.517 269.662 133.486 269.533H132.596C132.64 269.819 132.744 270.052 132.906 270.231C133.067 270.411 133.266 270.542 133.5 270.626C133.735 270.709 133.979 270.751 134.233 270.751ZM137.456 268.35V270.68H136.428V267.041H137.434V267.554C137.545 267.395 137.693 267.258 137.88 267.143C138.066 267.028 138.302 266.97 138.585 266.97C138.71 266.97 138.837 266.992 138.966 267.037C139.095 267.082 139.216 267.147 139.33 267.232C139.444 267.318 139.536 267.425 139.606 267.554C139.724 267.388 139.878 267.249 140.069 267.137C140.26 267.026 140.473 266.97 140.708 266.97C140.844 266.97 140.982 266.992 141.122 267.037C141.261 267.082 141.39 267.154 141.507 267.255C141.624 267.356 141.719 267.491 141.79 267.658C141.862 267.826 141.898 268.033 141.898 268.28V270.68H140.87V268.406C140.87 268.261 140.841 268.144 140.784 268.056C140.726 267.968 140.653 267.905 140.565 267.866C140.477 267.827 140.384 267.808 140.286 267.808C140.194 267.808 140.101 267.826 140.008 267.862C139.914 267.899 139.834 267.957 139.768 268.037C139.703 268.117 139.67 268.221 139.67 268.35V270.68H138.645V268.315C138.645 268.205 138.616 268.112 138.557 268.037C138.499 267.962 138.425 267.905 138.337 267.866C138.249 267.827 138.16 267.808 138.068 267.808C137.974 267.808 137.88 267.827 137.786 267.866C137.693 267.905 137.614 267.965 137.551 268.046C137.487 268.126 137.456 268.228 137.456 268.35ZM143.723 266.52V265.594H142.724V266.52H143.723ZM143.713 267.041V270.68H142.731V267.041H143.713ZM146.031 270.751C146.334 270.751 146.6 270.706 146.83 270.617C147.06 270.528 147.24 270.398 147.369 270.228C147.498 270.058 147.562 269.852 147.562 269.61C147.562 269.528 147.549 269.436 147.522 269.334C147.495 269.232 147.446 269.13 147.376 269.029C147.305 268.928 147.206 268.835 147.078 268.75C146.95 268.664 146.784 268.596 146.58 268.547L145.989 268.413C145.792 268.373 145.646 268.326 145.552 268.271C145.459 268.216 145.412 268.14 145.412 268.044C145.412 267.915 145.469 267.818 145.584 267.755C145.699 267.692 145.846 267.66 146.024 267.66C146.195 267.66 146.338 267.698 146.452 267.774C146.566 267.851 146.635 267.959 146.661 268.1H147.52C147.515 267.741 147.379 267.463 147.11 267.266C146.841 267.069 146.483 266.97 146.035 266.97C145.704 266.97 145.424 267.021 145.197 267.122C144.969 267.222 144.797 267.36 144.681 267.533C144.565 267.707 144.507 267.903 144.507 268.121C144.512 268.422 144.611 268.653 144.806 268.816C145.001 268.98 145.259 269.095 145.581 269.163L146.221 269.297C146.385 269.327 146.503 269.372 146.575 269.431C146.647 269.489 146.682 269.568 146.682 269.666C146.682 269.796 146.622 269.891 146.501 269.953C146.38 270.016 146.221 270.047 146.024 270.047C145.93 270.047 145.832 270.031 145.728 269.999C145.625 269.967 145.533 269.914 145.452 269.839C145.371 269.764 145.315 269.662 145.285 269.533H144.394C144.439 269.819 144.542 270.052 144.704 270.231C144.866 270.411 145.064 270.542 145.299 270.626C145.534 270.709 145.778 270.751 146.031 270.751ZM150.419 270.617C150.189 270.706 149.923 270.751 149.62 270.751C149.367 270.751 149.123 270.709 148.888 270.626C148.653 270.542 148.455 270.411 148.293 270.231C148.131 270.052 148.028 269.819 147.983 269.533H148.874C148.904 269.662 148.96 269.764 149.041 269.839C149.122 269.914 149.214 269.967 149.317 269.999C149.421 270.031 149.519 270.047 149.613 270.047C149.81 270.047 149.969 270.016 150.09 269.953C150.211 269.891 150.271 269.796 150.271 269.666C150.271 269.568 150.236 269.489 150.164 269.431C150.092 269.372 149.974 269.327 149.81 269.297L149.17 269.163C148.848 269.095 148.59 268.98 148.395 268.816C148.2 268.653 148.101 268.422 148.096 268.121C148.096 267.903 148.154 267.707 148.27 267.533C148.386 267.36 148.558 267.222 148.786 267.122C149.014 267.021 149.293 266.97 149.624 266.97C150.072 266.97 150.43 267.069 150.699 267.266C150.968 267.463 151.104 267.741 151.109 268.1H150.25C150.224 267.959 150.155 267.851 150.041 267.774C149.927 267.698 149.784 267.66 149.613 267.66C149.435 267.66 149.288 267.692 149.173 267.755C149.058 267.818 149.001 267.915 149.001 268.044C149.001 268.14 149.048 268.216 149.141 268.271C149.235 268.326 149.381 268.373 149.578 268.413L150.169 268.547C150.373 268.596 150.539 268.664 150.667 268.75C150.795 268.835 150.894 268.928 150.965 269.029C151.035 269.13 151.084 269.232 151.111 269.334C151.138 269.436 151.151 269.528 151.151 269.61C151.151 269.852 151.087 270.058 150.958 270.228C150.829 270.398 150.649 270.528 150.419 270.617Z" fill="#FBFCFE"/>
</g>
</g>
</g>
<defs>
<filter id="filter0_d_0_3003" x="0.563477" y="0.364258" width="324.896" height="479.271" filterUnits="userSpaceOnUse" color-interpolation-filters="sRGB">
<feFlood flood-opacity="0" result="BackgroundImageFix"/>
<feColorMatrix in="SourceAlpha" type="matrix" values="0 0 0 0 0 0 0 0 0 0 0 0 0 0 0 0 0 0 127 0" result="hardAlpha"/>
<feOffset dx="25" dy="25"/>
<feGaussianBlur stdDeviation="40"/>
<feColorMatrix type="matrix" values="0 0 0 0 0.212302 0 0 0 0 0.32521 0 0 0 0 0.419299 0 0 0 0.300727 0"/>
<feBlend mode="normal" in2="BackgroundImageFix" result="effect1_dropShadow_0_3003"/>
<feBlend mode="normal" in="SourceGraphic" in2="effect1_dropShadow_0_3003" result="shape"/>
</filter>
<filter id="filter1_d_0_3003" x="76.4401" y="140.88" width="142.64" height="152.24" filterUnits="userSpaceOnUse" color-interpolation-filters="sRGB">
<feFlood flood-opacity="0" result="BackgroundImageFix"/>
<feColorMatrix in="SourceAlpha" type="matrix" values="0 0 0 0 0 0 0 0 0 0 0 0 0 0 0 0 0 0 127 0" result="hardAlpha"/>
<feMorphology radius="10" operator="erode" in="SourceAlpha" result="effect1_dropShadow_0_3003"/>
<feOffset dx="10" dy="10"/>
<feGaussianBlur stdDeviation="12.5"/>
<feColorMatrix type="matrix" values="0 0 0 0 0.212302 0 0 0 0 0.32521 0 0 0 0 0.419299 0 0 0 0.25 0"/>
<feBlend mode="normal" in2="BackgroundImageFix" result="effect1_dropShadow_0_3003"/>
<feBlend mode="normal" in="SourceGraphic" in2="effect1_dropShadow_0_3003" result="shape"/>
</filter>
<linearGradient id="paint0_linear_0_3003" x1="60.3295" y1="55" x2="60.3295" y2="62.8873" gradientUnits="userSpaceOnUse">
<stop stop-color="#454545"/>
<stop offset="0.226279" stop-color="#999999"/>
<stop offset="1" stop-color="white"/>
</linearGradient>
<linearGradient id="paint1_linear_0_3003" x1="220.386" y1="109.879" x2="214.331" y2="109.879" gradientUnits="userSpaceOnUse">
<stop stop-color="white" stop-opacity="0.01"/>
<stop offset="0.222178" stop-color="#BABABA"/>
<stop offset="0.54678" stop-color="white" stop-opacity="0.01"/>
<stop offset="1" stop-color="white" stop-opacity="0.01"/>
</linearGradient>
<linearGradient id="paint2_linear_0_3003" x1="55.5634" y1="109.712" x2="61.6281" y2="109.712" gradientUnits="userSpaceOnUse">
<stop stop-color="white" stop-opacity="0.01"/>
<stop offset="0.222178" stop-color="#BABABA"/>
<stop offset="0.54678" stop-color="white" stop-opacity="0.01"/>
<stop offset="1" stop-color="white" stop-opacity="0.01"/>
</linearGradient>
</defs>
</svg>
